<?xml version="1.0" encoding="utf-8"?>
<!-- Generator: Adobe Illustrator 17.1.0, SVG Export Plug-In . SVG Version: 6.00 Build 0)  -->
<!DOCTYPE svg PUBLIC "-//W3C//DTD SVG 1.1//EN" "http://www.w3.org/Graphics/SVG/1.1/DTD/svg11.dtd">
<svg version="1.1" id="Layer_1" xmlns="http://www.w3.org/2000/svg" xmlns:xlink="http://www.w3.org/1999/xlink" x="0px" y="0px"
	 width="25px" height="100px" viewBox="0 0 25 100" enable-background="new 0 0 25 100" xml:space="preserve">
<g>
	<path fill="#A1B963" d="M25,91.9c0,4.5-0.9,8.1-2,8.1H2c-1.1,0-2-3.6-2-8.1V8.1C0,3.6,0.9,0,2,0H23c1.1,0,2,3.6,2,8.1V91.9z"/>
</g>
<g>
	<path fill="#FFFFFF" d="M14.3,46.3L14.3,46.3L13.4,47c-0.1,0.1-0.2,0.1-0.3,0.1c-0.1,0-0.2,0-0.3-0.1L12,46.3l-0.1,0c0,0,0,0,0,0
		l-5.3,3.8c0,0,0.1,0,0.1,0h12.8c0,0,0.1,0,0.1,0L14.3,46.3C14.3,46.3,14.3,46.3,14.3,46.3z"/>
	<path fill="#FFFFFF" d="M5.9,41.2c0,0.1,0,0.1,0,0.2v8c0,0.1,0,0.2,0.1,0.2l5.5-3.8L5.9,41.2z"/>
	<path fill="#FFFFFF" d="M20.3,41.2l-5.5,4.6l5.5,3.8c0-0.1,0.1-0.2,0.1-0.2v-8C20.3,41.3,20.3,41.3,20.3,41.2z"/>
	<path fill="#FFFFFF" d="M19.7,40.7c-0.1,0-0.1,0-0.2,0H6.7c-0.1,0-0.1,0-0.2,0l6.6,5.5L19.7,40.7z"/>
</g>
</svg>
