<?xml version="1.0" encoding="utf-8"?>
<!-- Generator: Adobe Illustrator 17.1.0, SVG Export Plug-In . SVG Version: 6.00 Build 0)  -->
<!DOCTYPE svg PUBLIC "-//W3C//DTD SVG 1.1//EN" "http://www.w3.org/Graphics/SVG/1.1/DTD/svg11.dtd">
<svg version="1.1" id="Layer_1" xmlns="http://www.w3.org/2000/svg" xmlns:xlink="http://www.w3.org/1999/xlink" x="0px" y="0px"
	 width="27px" height="27px" viewBox="0 0 27 27" enable-background="new 0 0 27 27" xml:space="preserve">
<path id="BELL_2_" fill-rule="evenodd" clip-rule="evenodd" fill="#808080" d="M23.3,22.6H4.2c-0.8,0-1.4-0.7-1.4-1.5
	c0-0.8,0.6-1.5,1.4-1.5s1.4-0.7,1.4-1.5V8.3c0-3.8,3-6.9,6.7-6.9C12.3,0.7,13,0,13.8,0s1.4,0.7,1.4,1.5c3.7,0,6.7,3.1,6.7,6.9v9.8
	c0,0.8,0.6,1.5,1.4,1.5c0.8,0,1.4,0.7,1.4,1.5C24.8,21.9,24.1,22.6,23.3,22.6z M13.8,27c-1.6,0-2.9-1.3-2.9-2.9h5.7
	C16.6,25.7,15.3,27,13.8,27z"/>
</svg>
