<?xml version="1.0" encoding="utf-8"?>
<!-- Generator: Adobe Illustrator 17.1.0, SVG Export Plug-In . SVG Version: 6.00 Build 0)  -->
<!DOCTYPE svg PUBLIC "-//W3C//DTD SVG 1.1//EN" "http://www.w3.org/Graphics/SVG/1.1/DTD/svg11.dtd">
<svg version="1.1" id="Layer_1" xmlns="http://www.w3.org/2000/svg" xmlns:xlink="http://www.w3.org/1999/xlink" x="0px" y="0px"
	 width="27px" height="27px" viewBox="0 0 27 27" enable-background="new 0 0 27 27" xml:space="preserve">
<path id="USER_6_" fill-rule="evenodd" clip-rule="evenodd" fill="#BFBFBF" d="M27,25.7C27,25.7,27,25.7,27,25.7
	c0,0.7-0.6,1.3-1.3,1.3H1.3C0.6,27,0,26.4,0,25.7c0,0,0,0,0,0h0c0,0,0-4.8,3.4-6.5c2.1-1.1,1.3-0.2,3.9-1.3c2.6-1.1,3.2-1.5,3.2-1.5
	l0-2.6c0,0-1-0.8-1.3-3.2c-0.6,0.2-0.8-0.7-0.9-1.3c0-0.6-0.4-2.3,0.4-2.2C8.7,5.9,8.6,4.8,8.6,4.2c0.2-2,2-4.1,4.9-4.2
	c3.4,0.2,4.7,2.2,4.9,4.2c0.1,0.6-0.1,1.6-0.2,2.8c0.7-0.2,0.4,1.6,0.4,2.2c0,0.6-0.2,1.5-0.9,1.3c-0.3,2.4-1.3,3.2-1.3,3.2l0,2.6
	c0,0,0.6,0.4,3.2,1.5c2.6,1.1,1.8,0.3,3.9,1.4C27,20.9,27,25.7,27,25.7L27,25.7z"/>
<path id="MORE_2_" fill-rule="evenodd" clip-rule="evenodd" fill="#BFBFBF" d="M25.3,3.8c0,1.7-1.4,3-3,3c-1.7,0-3-1.4-3-3
	c0-1.7,1.4-3,3-3C23.9,0.8,25.3,2.1,25.3,3.8z M25.3,13.4c0,1.7-1.4,3-3,3c-1.7,0-3-1.4-3-3c0-1.7,1.4-3,3-3
	C23.9,10.4,25.3,11.7,25.3,13.4z M25.3,23c0,1.7-1.4,3-3,3c-1.7,0-3-1.4-3-3c0-1.7,1.4-3,3-3C23.9,20,25.3,21.3,25.3,23z"/>
</svg>
