<?xml version="1.0" encoding="utf-8"?>
<!-- Generator: Adobe Illustrator 17.1.0, SVG Export Plug-In . SVG Version: 6.00 Build 0)  -->
<!DOCTYPE svg PUBLIC "-//W3C//DTD SVG 1.1//EN" "http://www.w3.org/Graphics/SVG/1.1/DTD/svg11.dtd">
<svg version="1.1" id="Layer_1" xmlns="http://www.w3.org/2000/svg" xmlns:xlink="http://www.w3.org/1999/xlink" x="0px" y="0px"
	 width="25px" height="25px" viewBox="0 0 25 25" enable-background="new 0 0 25 25" xml:space="preserve">
<g>
	<g>
		<path fill="#6A6689" d="M25,23c0,1.1-0.9,2-2,2H2c-1.1,0-2-0.9-2-2V2.9c0-1.1,0.9-2,2-2H23c1.1,0,2,0.9,2,2V23z"/>
		<path fill="#8E8FBD" d="M25,22.1c0,1.1-0.9,2-2,2H2c-1.1,0-2-0.9-2-2V2c0-1.1,0.9-2,2-2H23c1.1,0,2,0.9,2,2V22.1z"/>
	</g>
	<g>
		<defs>
			<path id="SVGID_1_" d="M25,22.1c0,1.1-0.9,2-2,2H2c-1.1,0-2-0.9-2-2V2c0-1.1,0.9-2,2-2H23c1.1,0,2,0.9,2,2V22.1z"/>
		</defs>
		<clipPath id="SVGID_2_">
			<use xlink:href="#SVGID_1_"  overflow="visible"/>
		</clipPath>
		<polygon opacity="0.2" clip-path="url(#SVGID_2_)" points="11.2,13.9 8.4,11.1 8.7,6.1 16.6,5.7 26.5,15.6 26.1,26.2 18.5,25.8 
			11.2,18.5 		"/>
	</g>
	<path fill="#FFFFFF" d="M16,5.5H9c-0.4,0-0.8,0.3-0.8,0.8v4.3c0,0.4,0.3,0.8,0.8,0.8h2V18c0,0.4,0.3,0.8,0.8,0.8l1.6-0.4
		c0,0,0.8-0.3,0.8-0.8v-1.2h-0.8v-0.8h0.8v-0.8h-0.8v-0.8h0.8v-2.7h2c0.4,0,0.8-0.3,0.8-0.8V6.3C16.8,5.8,16.4,5.5,16,5.5z
		 M12.5,17.2h-0.8v-5.9h0.8V17.2z M15.2,7.8H9.8C9.3,7.8,9,7.5,9,7s0.3-0.8,0.8-0.8h5.5C15.7,6.3,16,6.6,16,7S15.7,7.8,15.2,7.8z"/>
</g>
</svg>
