<?xml version="1.0" encoding="utf-8"?>
<!-- Generator: Adobe Illustrator 17.1.0, SVG Export Plug-In . SVG Version: 6.00 Build 0)  -->
<!DOCTYPE svg PUBLIC "-//W3C//DTD SVG 1.1//EN" "http://www.w3.org/Graphics/SVG/1.1/DTD/svg11.dtd">
<svg version="1.1" id="Layer_1" xmlns="http://www.w3.org/2000/svg" xmlns:xlink="http://www.w3.org/1999/xlink" x="0px" y="0px"
	 width="91px" height="70px" viewBox="0 0 91 70" enable-background="new 0 0 91 70" xml:space="preserve">
<path fill="#EC5451" d="M83.9,0c-3,0-5.1,1.7-6.2,4.2C76.6,1.7,74.6,0,71.6,0c-4.7,0-7.1,3.5-7.1,9c0,5.8,10.8,13.7,13.3,13.7
	C80.2,22.8,91,14.9,91,9C91,3.5,88.6,0,83.9,0z"/>
<path fill="#A8C556" d="M13.1,0C5.9,0,0,4.8,0,10.8c0,3.9,2,7.3,5.8,9.1v5l4.5-3.6c0.9,0.2,1.8,0.2,2.7,0.2
	c7.2,0,13.1-4.8,13.1-10.8S20.3,0,13.1,0z"/>
<path fill="#7F7F7F" d="M83.9,47.1c-3,0-5.1,1.7-6.2,4.2c-1.1-2.5-3.2-4.2-6.2-4.2c-4.7,0-7.1,3.5-7.1,9c0,5.8,10.8,13.7,13.3,13.7
	C80.2,69.9,91,62,91,56.2C91,50.6,88.6,47.1,83.9,47.1z"/>
<path fill="#7F7F7F" d="M13.1,45C5.9,45,0,49.8,0,55.7c0,3.9,2,7.3,5.8,9.1v5l4.5-3.6c0.9,0.2,1.8,0.2,2.7,0.2
	c7.2,0,13.1-4.8,13.1-10.8S20.3,45,13.1,45z"/>
</svg>
