<?xml version="1.0" encoding="utf-8"?>
<!-- Generator: Adobe Illustrator 17.1.0, SVG Export Plug-In . SVG Version: 6.00 Build 0)  -->
<!DOCTYPE svg PUBLIC "-//W3C//DTD SVG 1.1//EN" "http://www.w3.org/Graphics/SVG/1.1/DTD/svg11.dtd">
<svg version="1.1" id="Layer_1" xmlns="http://www.w3.org/2000/svg" xmlns:xlink="http://www.w3.org/1999/xlink" x="0px" y="0px"
	 width="25px" height="100px" viewBox="0 0 25 100" enable-background="new 0 0 25 100" xml:space="preserve">
<g>
	<path fill="#908FB2" d="M25,91.9c0,4.5-0.9,8.1-2,8.1H2c-1.1,0-2-3.6-2-8.1V8.1C0,3.6,0.9,0,2,0H23c1.1,0,2,3.6,2,8.1V91.9z"/>
</g>
<path fill="#FFFFFF" d="M18.4,41.7H6.6c-0.4,0-0.8,0.4-0.8,0.9v8.5c0,0.5,0.4,0.9,0.8,0.9h1.2v2.6l3.1-2.6h7.4
	c0.4,0,0.8-0.4,0.8-0.9v-8.5C19.2,42,18.8,41.7,18.4,41.7z M9.4,48.1c-0.6,0-1.2-0.6-1.2-1.3c0-0.7,0.5-1.3,1.2-1.3s1.2,0.6,1.2,1.3
	C10.5,47.5,10,48.1,9.4,48.1z M12.5,48.1c-0.6,0-1.2-0.6-1.2-1.3c0-0.7,0.5-1.3,1.2-1.3s1.2,0.6,1.2,1.3
	C13.7,47.5,13.1,48.1,12.5,48.1z M15.6,48.1c-0.6,0-1.2-0.6-1.2-1.3c0-0.7,0.5-1.3,1.2-1.3s1.2,0.6,1.2,1.3
	C16.8,47.5,16.3,48.1,15.6,48.1z"/>
</svg>
