<?xml version="1.0" encoding="utf-8"?>
<!-- Generator: Adobe Illustrator 17.1.0, SVG Export Plug-In . SVG Version: 6.00 Build 0)  -->
<!DOCTYPE svg PUBLIC "-//W3C//DTD SVG 1.1//EN" "http://www.w3.org/Graphics/SVG/1.1/DTD/svg11.dtd">
<svg version="1.1" id="Layer_1" xmlns="http://www.w3.org/2000/svg" xmlns:xlink="http://www.w3.org/1999/xlink" x="0px" y="0px"
	 width="25px" height="25px" viewBox="0 0 25 25" enable-background="new 0 0 25 25" xml:space="preserve">
<g>
	<g>
		<path fill="#6B7979" d="M25,23.1c0,1.1-0.9,2-2,2H2c-1.1,0-2-0.9-2-2V3c0-1.1,0.9-2,2-2H23c1.1,0,2,0.9,2,2V23.1z"/>
		<path fill="#92A5A5" d="M25,22.1c0,1.1-0.9,2-2,2H2c-1.1,0-2-0.9-2-2V2c0-1.1,0.9-2,2-2H23c1.1,0,2,0.9,2,2V22.1z"/>
	</g>
	<g>
		<defs>
			<path id="SVGID_1_" d="M25,22.1c0,1.1-0.9,2-2,2H2c-1.1,0-2-0.9-2-2V2c0-1.1,0.9-2,2-2H23c1.1,0,2,0.9,2,2V22.1z"/>
		</defs>
		<clipPath id="SVGID_2_">
			<use xlink:href="#SVGID_1_"  overflow="visible"/>
		</clipPath>
		<polygon opacity="0.2" clip-path="url(#SVGID_2_)" points="9.6,12.1 14.6,17.1 15.2,16.4 10.9,12.2 14.5,5.2 26.5,17.1 25.2,26.3 
			14.5,25.7 6.9,18.2 		"/>
	</g>
	<g>
		<path fill="#FFFFFF" d="M15.4,12.2c-0.2,0.8-1.3,1.7-2.9,1.7c-1.6,0-2.8-0.9-2.9-1.7c-2.2,0.2-3.2,3.3-3.2,3.3v1.7
			c0,1.1,1.7,1.8,1.7,1.8h8.8c0,0,1.7-0.7,1.7-1.8v-1.7C18.6,15.5,17.6,12.3,15.4,12.2z"/>
		<path fill="#FFFFFF" d="M12.5,12.9c1.7,0,2.9-2.2,2.9-4.4c0-2.2-0.4-4-2.9-4c-2.5,0-2.9,1.8-2.9,4C9.6,10.7,10.8,12.9,12.5,12.9z"
			/>
	</g>
</g>
</svg>
